<svg xmlns="http://www.w3.org/2000/svg" xmlns:xlink="http://www.w3.org/1999/xlink" zoomAndPan="magnify" preserveAspectRatio="xMidYMid meet" version="1.0" viewBox="40.07 2.57 106.86 106.86"><defs><clipPath id="360ecec2d8"><path d="M 73.867188 12.089844 L 133.878906 12.089844 L 133.878906 24 L 73.867188 24 Z M 73.867188 12.089844 " clip-rule="nonzero"/></clipPath><clipPath id="1799637ab2"><path d="M 73.867188 26 L 133.878906 26 L 133.878906 72.101562 L 73.867188 72.101562 Z M 73.867188 26 " clip-rule="nonzero"/></clipPath><clipPath id="b9ce5f313e"><path d="M 73 83 L 104 83 L 104 99.914062 L 73 99.914062 Z M 73 83 " clip-rule="nonzero"/></clipPath><clipPath id="4f59656612"><path d="M 53.113281 12.089844 L 70 12.089844 L 70 99.914062 L 53.113281 99.914062 Z M 53.113281 12.089844 " clip-rule="nonzero"/></clipPath><clipPath id="17a156fa76"><path d="M 40.066406 2.566406 L 146.84375 2.566406 L 146.84375 109.34375 L 40.066406 109.34375 Z M 40.066406 2.566406 " clip-rule="nonzero"/></clipPath><clipPath id="8545363ac5"><path d="M 103.175781 83.222656 L 117.363281 83.222656 L 117.363281 104.878906 L 103.175781 104.878906 Z M 103.175781 83.222656 " clip-rule="nonzero"/></clipPath></defs><g clip-path="url(#360ecec2d8)"><path fill="#7e30e1" d="M 73.546875 23.402344 L 133.878906 23.402344 L 133.878906 12.089844 L 73.546875 12.089844 L 73.546875 23.402344 " fill-opacity="1" fill-rule="nonzero"/></g><g clip-path="url(#1799637ab2)"><path fill="#7e30e1" d="M 122.574219 47.507812 C 119.703125 48.738281 116.378906 49.378906 112.722656 49.378906 L 73.546875 49.378906 L 73.546875 38.066406 L 112.722656 38.066406 C 117.328125 38.066406 122.566406 35.34375 122.566406 28.640625 L 122.566406 26.125 L 133.878906 26.125 L 133.878906 51.683594 C 133.878906 64.878906 125.289062 72.421875 112.722656 72.421875 L 73.546875 72.421875 L 73.546875 61.109375 L 112.722656 61.109375 C 117.328125 61.109375 122.566406 58.386719 122.566406 51.683594 L 122.574219 47.507812 " fill-opacity="1" fill-rule="nonzero"/></g><g clip-path="url(#b9ce5f313e)"><path fill="#7e30e1" d="M 103.699219 99.886719 L 103.699219 83.429688 L 73.53125 83.429688 L 73.53125 99.886719 L 103.699219 99.886719 " fill-opacity="1" fill-rule="nonzero"/></g><g clip-path="url(#4f59656612)"><path fill="#7e30e1" d="M 69.566406 99.886719 L 69.566406 12.117188 L 53.113281 12.117188 L 53.113281 99.886719 L 69.566406 99.886719 " fill-opacity="1" fill-rule="nonzero"/></g><g clip-path="url(#17a156fa76)"><path fill="#7e30e1" d="M 138.597656 2.566406 L 48.394531 2.566406 C 43.800781 2.566406 40.066406 6.300781 40.066406 10.894531 L 40.066406 101.097656 C 40.066406 105.691406 43.800781 109.425781 48.394531 109.425781 L 138.597656 109.425781 C 143.191406 109.425781 146.925781 105.691406 146.925781 101.097656 L 146.925781 10.894531 C 146.925781 6.300781 143.191406 2.566406 138.597656 2.566406 Z M 144.148438 101.097656 C 144.148438 104.164062 141.664062 106.648438 138.597656 106.648438 L 48.394531 106.648438 C 45.328125 106.648438 42.84375 104.164062 42.84375 101.097656 L 42.84375 10.894531 C 42.84375 7.828125 45.328125 5.34375 48.394531 5.34375 L 138.597656 5.34375 C 141.664062 5.34375 144.148438 7.828125 144.148438 10.894531 Z M 144.148438 101.097656 " fill-opacity="1" fill-rule="nonzero"/></g><g clip-path="url(#8545363ac5)"><path fill="#7e30e1" d="M 116.398438 83.21875 L 103.957031 83.21875 C 103.542969 83.21875 103.203125 83.554688 103.203125 83.972656 L 103.203125 104.140625 C 103.203125 104.453125 103.398438 104.734375 103.691406 104.84375 C 103.988281 104.957031 104.320312 104.871094 104.527344 104.632812 L 110.214844 98.09375 L 115.824219 104.628906 C 115.972656 104.800781 116.179688 104.890625 116.398438 104.890625 C 116.484375 104.890625 116.574219 104.878906 116.660156 104.84375 C 116.953125 104.734375 117.148438 104.453125 117.148438 104.140625 L 117.148438 83.972656 C 117.152344 83.554688 116.8125 83.21875 116.398438 83.21875 Z M 106.136719 100.488281 L 106.136719 100.683594 L 104.496094 102.652344 L 104.496094 84.53125 L 106.136719 84.59375 Z M 106.136719 100.488281 " fill-opacity="1" fill-rule="nonzero"/></g></svg>