<svg xmlns="http://www.w3.org/2000/svg" xmlns:xlink="http://www.w3.org/1999/xlink" zoomAndPan="magnify" preserveAspectRatio="xMidYMid meet" version="1.0" viewBox="86.5 45.12 14.19 21.67"><defs><clipPath id="6b68fa2f2e"><path d="M 86.5 45.125 L 100.6875 45.125 L 100.6875 66.78125 L 86.5 66.78125 Z M 86.5 45.125 " clip-rule="nonzero"/></clipPath></defs><g clip-path="url(#6b68fa2f2e)"><path fill="#7e30e1" d="M 99.71875 45.121094 L 87.28125 45.121094 C 86.863281 45.121094 86.527344 45.457031 86.527344 45.875 L 86.527344 66.039062 C 86.527344 66.355469 86.722656 66.636719 87.015625 66.746094 C 87.3125 66.855469 87.644531 66.773438 87.847656 66.535156 L 93.539062 59.996094 L 99.148438 66.53125 C 99.292969 66.703125 99.503906 66.792969 99.71875 66.792969 C 99.808594 66.792969 99.894531 66.777344 99.980469 66.746094 C 100.277344 66.636719 100.472656 66.355469 100.472656 66.039062 L 100.472656 45.875 C 100.472656 45.457031 100.136719 45.121094 99.71875 45.121094 Z M 89.457031 62.390625 L 89.457031 62.585938 L 87.820312 64.554688 L 87.820312 46.433594 L 89.457031 46.496094 Z M 89.457031 62.390625 " fill-opacity="1" fill-rule="nonzero"/></g></svg>