<svg xmlns="http://www.w3.org/2000/svg" xmlns:xlink="http://www.w3.org/1999/xlink" zoomAndPan="magnify" preserveAspectRatio="xMidYMid meet" version="1.0" viewBox="40.56 3.06 105.86 105.86"><defs><clipPath id="9c2e6fbc7e"><path d="M 74.050781 12.496094 L 133.503906 12.496094 L 133.503906 24 L 74.050781 24 Z M 74.050781 12.496094 " clip-rule="nonzero"/></clipPath><clipPath id="8e084838dc"><path d="M 74.050781 26 L 133.503906 26 L 133.503906 71.953125 L 74.050781 71.953125 Z M 74.050781 26 " clip-rule="nonzero"/></clipPath><clipPath id="59d8281fa1"><path d="M 73 83 L 104.242188 83 L 104.242188 99.503906 L 73 99.503906 Z M 73 83 " clip-rule="nonzero"/></clipPath><clipPath id="0fb377cfd9"><path d="M 53.484375 12.496094 L 70 12.496094 L 70 99.503906 L 53.484375 99.503906 Z M 53.484375 12.496094 " clip-rule="nonzero"/></clipPath><clipPath id="cc84fbae52"><path d="M 40.5625 3.0625 L 146.421875 3.0625 L 146.421875 108.921875 L 40.5625 108.921875 Z M 40.5625 3.0625 " clip-rule="nonzero"/></clipPath><clipPath id="54aedd3285"><path d="M 102.925781 82.972656 L 117 82.972656 L 117 104.628906 L 102.925781 104.628906 Z M 102.925781 82.972656 " clip-rule="nonzero"/></clipPath></defs><g clip-path="url(#9c2e6fbc7e)"><path fill="#000000" d="M 74.050781 23.644531 L 133.503906 23.644531 L 133.503906 12.496094 L 74.050781 12.496094 L 74.050781 23.644531 " fill-opacity="1" fill-rule="nonzero"/></g><g clip-path="url(#8e084838dc)"><path fill="#000000" d="M 122.363281 47.402344 C 119.535156 48.613281 116.261719 49.242188 112.652344 49.242188 L 74.050781 49.242188 L 74.050781 38.097656 L 112.652344 38.097656 C 117.195312 38.097656 122.355469 35.414062 122.355469 28.804688 L 122.355469 26.328125 L 133.503906 26.328125 L 133.503906 51.515625 C 133.503906 64.519531 125.039062 71.953125 112.652344 71.953125 L 74.050781 71.953125 L 74.050781 60.804688 L 112.652344 60.804688 C 117.195312 60.804688 122.355469 58.121094 122.355469 51.515625 L 122.363281 47.402344 " fill-opacity="1" fill-rule="nonzero"/></g><g clip-path="url(#59d8281fa1)"><path fill="#000000" d="M 104.242188 99.480469 L 104.242188 83.175781 L 73.972656 83.175781 L 73.972656 99.480469 L 104.242188 99.480469 " fill-opacity="1" fill-rule="nonzero"/></g><g clip-path="url(#0fb377cfd9)"><path fill="#000000" d="M 69.996094 99.480469 L 69.996094 12.523438 L 53.484375 12.523438 L 53.484375 99.480469 L 69.996094 99.480469 " fill-opacity="1" fill-rule="nonzero"/></g><g clip-path="url(#cc84fbae52)"><path fill="#000000" d="M 138.171875 3.0625 L 48.8125 3.0625 C 44.261719 3.0625 40.5625 6.761719 40.5625 11.3125 L 40.5625 100.671875 C 40.5625 105.222656 44.261719 108.921875 48.8125 108.921875 L 138.171875 108.921875 C 142.722656 108.921875 146.421875 105.222656 146.421875 100.671875 L 146.421875 11.3125 C 146.421875 6.761719 142.722656 3.0625 138.171875 3.0625 Z M 143.671875 100.671875 C 143.671875 103.710938 141.210938 106.171875 138.171875 106.171875 L 48.8125 106.171875 C 45.773438 106.171875 43.3125 103.710938 43.3125 100.671875 L 43.3125 11.3125 C 43.3125 8.273438 45.773438 5.8125 48.8125 5.8125 L 138.171875 5.8125 C 141.210938 5.8125 143.671875 8.273438 143.671875 11.3125 Z M 143.671875 100.671875 " fill-opacity="1" fill-rule="nonzero"/></g><g clip-path="url(#54aedd3285)"><path fill="#000000" d="M 116.144531 82.964844 L 103.707031 82.964844 C 103.289062 82.964844 102.953125 83.304688 102.953125 83.71875 L 102.953125 103.886719 C 102.953125 104.203125 103.148438 104.484375 103.441406 104.59375 C 103.738281 104.703125 104.070312 104.617188 104.273438 104.382812 L 109.964844 97.839844 L 115.574219 104.378906 C 115.71875 104.546875 115.929688 104.640625 116.144531 104.640625 C 116.234375 104.640625 116.320312 104.625 116.40625 104.59375 C 116.703125 104.484375 116.898438 104.203125 116.898438 103.886719 L 116.898438 83.71875 C 116.898438 83.304688 116.5625 82.964844 116.144531 82.964844 Z M 105.882812 100.238281 L 105.882812 100.433594 L 104.246094 102.402344 L 104.246094 84.28125 L 105.882812 84.34375 Z M 105.882812 100.238281 " fill-opacity="1" fill-rule="nonzero"/></g></svg>