<svg xmlns="http://www.w3.org/2000/svg" xmlns:xlink="http://www.w3.org/1999/xlink" zoomAndPan="magnify" preserveAspectRatio="xMidYMid meet" version="1.0" viewBox="55.11 24.26 77.72 54.79"><defs><g/><clipPath id="2eb2971450"><path d="M 88 24.457031 L 120.664062 24.457031 L 120.664062 67.738281 L 88 67.738281 Z M 88 24.457031 " clip-rule="nonzero"/></clipPath><clipPath id="b052b21ff9"><path d="M 66.339844 24.457031 L 99 24.457031 L 99 67.738281 L 66.339844 67.738281 Z M 66.339844 24.457031 " clip-rule="nonzero"/></clipPath></defs><g clip-path="url(#2eb2971450)"><path fill="#7e30e1" d="M 88.070312 40.554688 L 88.070312 67.738281 L 98.9375 56.871094 L 98.9375 40.554688 C 98.9375 38.144531 100.507812 36.101562 102.683594 35.390625 C 101.902344 35.089844 101.054688 34.925781 100.167969 34.925781 C 99.574219 34.925781 98.996094 35 98.445312 35.140625 C 99.644531 34.167969 101.167969 33.585938 102.832031 33.585938 C 106.679688 33.585938 109.800781 36.707031 109.800781 40.554688 L 109.800781 67.738281 L 120.664062 56.871094 L 120.664062 40.554688 C 120.664062 31.554688 113.371094 24.257812 104.367188 24.257812 C 95.367188 24.257812 88.070312 31.554688 88.070312 40.554688 " fill-opacity="1" fill-rule="nonzero"/></g><g clip-path="url(#b052b21ff9)"><path fill="#7e30e1" d="M 66.339844 40.554688 L 66.339844 67.738281 L 77.207031 56.871094 L 77.207031 40.554688 C 77.207031 38.144531 78.777344 36.101562 80.953125 35.390625 C 80.171875 35.089844 79.324219 34.925781 78.441406 34.925781 C 77.84375 34.925781 77.269531 35 76.71875 35.140625 C 77.914062 34.167969 79.441406 33.585938 81.101562 33.585938 C 84.949219 33.585938 88.070312 36.707031 88.070312 40.554688 L 88.070312 67.738281 L 98.9375 56.871094 L 98.9375 40.554688 C 98.9375 31.554688 91.640625 24.257812 82.636719 24.257812 C 73.636719 24.257812 66.339844 31.554688 66.339844 40.554688 " fill-opacity="1" fill-rule="nonzero"/></g><g fill="#000000" fill-opacity="1"><g transform="translate(54.162456, 79.046934)"><g><path d="M 7.167969 -1.582031 L 2.644531 -1.582031 L 2.644531 -8.652344 L 0.945312 -8.652344 L 0.945312 0 L 7.167969 0 Z M 7.167969 -1.582031 "/></g></g></g><g fill="#000000" fill-opacity="1"><g transform="translate(63.503022, 79.046934)"><g><path d="M 1.003906 -8.652344 L 1.003906 0 L 2.699219 0 L 2.699219 -8.652344 Z M 1.003906 -8.652344 "/></g></g></g><g fill="#000000" fill-opacity="1"><g transform="translate(69.042994, 79.046934)"><g><path d="M 6.601562 -8.652344 L 6.601562 -2.855469 L 2.644531 -8.652344 L 0.945312 -8.652344 L 0.945312 0 L 2.644531 0 L 2.644531 -5.796875 L 6.601562 0 L 8.296875 0 L 8.296875 -8.652344 Z M 6.601562 -8.652344 "/></g></g></g><g fill="#000000" fill-opacity="1"><g transform="translate(80.135508, 79.046934)"><g><path d="M 8.097656 -8.652344 L 5.992188 -8.652344 L 2.671875 -4.324219 L 6.132812 0 L 8.242188 0 L 4.75 -4.324219 Z M 0.945312 -8.652344 L 0.945312 0 L 2.644531 0 L 2.644531 -8.652344 Z M 0.945312 -8.652344 "/></g></g></g><g fill="#000000" fill-opacity="1"><g transform="translate(90.210759, 79.046934)"><g><path d="M 2.644531 -5.511719 L 4.777344 -1.949219 L 6.472656 -1.949219 L 8.609375 -5.511719 L 8.609375 0 L 10.304688 0 L 10.304688 -8.652344 L 8.609375 -8.652344 L 5.625 -3.519531 L 2.644531 -8.652344 L 0.945312 -8.652344 L 0.945312 0 L 2.644531 0 Z M 2.644531 -5.511719 "/></g></g></g><g fill="#000000" fill-opacity="1"><g transform="translate(103.309536, 79.046934)"><g><path d="M 6.390625 -1.949219 L 7.125 0 L 8.960938 0 L 5.425781 -8.652344 L 3.730469 -8.652344 L 0.199219 0 L 2.035156 0 L 2.769531 -1.949219 Z M 3.363281 -3.535156 L 4.578125 -6.769531 L 5.796875 -3.535156 Z M 3.363281 -3.535156 "/></g></g></g><g fill="#000000" fill-opacity="1"><g transform="translate(114.303153, 79.046934)"><g><path d="M 6.132812 0 L 8.242188 0 L 5.722656 -3.125 C 6.882812 -3.546875 7.746094 -4.550781 7.746094 -5.808594 C 7.746094 -7.351562 6.429688 -8.652344 4.761719 -8.652344 L 0.945312 -8.652344 L 0.945312 0 L 2.644531 0 L 2.644531 -7.066406 L 4.761719 -7.066406 C 5.441406 -7.066406 6.050781 -6.644531 6.050781 -5.695312 C 6.050781 -4.691406 5.386719 -4.324219 4.480469 -4.324219 L 2.671875 -4.324219 Z M 6.132812 0 "/></g></g></g><g fill="#000000" fill-opacity="1"><g transform="translate(124.590331, 79.046934)"><g><path d="M 8.097656 -8.652344 L 5.992188 -8.652344 L 2.671875 -4.324219 L 6.132812 0 L 8.242188 0 L 4.75 -4.324219 Z M 0.945312 -8.652344 L 0.945312 0 L 2.644531 0 L 2.644531 -8.652344 Z M 0.945312 -8.652344 "/></g></g></g></svg>